<?xml version="1.0" encoding="UTF-8"?>
<!-- Generator: https://ezgif.com/png-to-svg -->
<svg version="1.1" xmlns="http://www.w3.org/2000/svg" width="512" height="512">
<path d="M0,0 L55,0 L83,3 L99,6 L112,11 L123,17 L133,25 L143,38 L148,48 L151,60 L151,194 L147,209 L140,222 L130,233 L116,242 L105,246 L100,247 L-37,248 L-53,251 L-68,257 L-82,267 L-90,275 L-99,289 L-104,300 L-107,313 L-108,379 L-159,379 L-175,375 L-187,368 L-195,361 L-204,349 L-212,332 L-218,311 L-223,284 L-225,263 L-225,246 L-223,225 L-217,194 L-212,178 L-206,166 L-197,154 L-186,144 L-172,136 L-155,131 L-148,130 L28,130 L28,116 L-94,116 L-94,57 L-91,41 L-84,27 L-74,18 L-57,10 L-38,5 L-11,1 Z M-45,38 L-55,43 L-61,52 L-62,54 L-62,67 L-58,75 L-51,81 L-47,83 L-34,83 L-26,79 L-20,72 L-18,67 L-18,55 L-22,47 L-30,40 L-35,38 Z " fill="#3C79AA" transform="translate(227,0)"/>
<path d="M0,0 L54,0 L70,4 L80,10 L86,15 L95,27 L103,43 L109,63 L115,92 L117,107 L118,121 L118,137 L116,158 L111,180 L102,206 L91,227 L80,239 L68,246 L55,249 L-136,249 L-136,264 L-14,264 L-14,320 L-18,333 L-24,343 L-32,352 L-45,361 L-61,369 L-80,375 L-103,380 L-117,382 L-156,382 L-181,378 L-206,371 L-224,363 L-235,356 L-247,345 L-254,334 L-258,323 L-259,318 L-259,187 L-255,171 L-248,158 L-237,146 L-227,139 L-215,134 L-207,132 L-70,131 L-55,128 L-42,123 L-31,116 L-19,105 L-12,95 L-5,81 L-1,66 Z M-74,296 L-84,302 L-89,310 L-90,313 L-90,323 L-87,331 L-80,338 L-73,341 L-63,341 L-56,338 L-50,333 L-46,326 L-45,315 L-49,305 L-57,298 L-62,296 Z " fill="#FFDE57" transform="translate(392,130)"/>
</svg>
