<?xml version="1.0" encoding="UTF-8"?>
<!-- Generator: https://ezgif.com/png-to-svg -->
<svg version="1.1" xmlns="http://www.w3.org/2000/svg" width="512" height="512">
<path d="M0,0 L44,0 L67,3 L90,8 L117,17 L137,26 L156,37 L173,49 L184,58 L197,70 L209,83 L223,102 L235,123 L245,147 L251,170 L254,189 L254,227 L250,251 L244,272 L234,295 L226,309 L215,325 L206,336 L194,349 L181,361 L168,371 L165,370 L153,351 L147,342 L145,340 L158,332 L171,322 L184,310 L193,299 L202,286 L210,271 L215,258 L219,242 L221,221 L220,204 L216,186 L212,174 L204,157 L196,145 L188,135 L177,123 L166,114 L152,104 L136,95 L121,88 L97,80 L72,75 L63,74 L41,73 L21,74 L-4,78 L-23,83 L-44,91 L-65,102 L-78,111 L-88,119 L-100,130 L-110,142 L-120,157 L-129,176 L-134,193 L-136,204 L-137,221 L-135,242 L-130,261 L-122,279 L-113,294 L-104,305 L-93,317 L-82,326 L-68,336 L-58,342 L-58,404 L-75,398 L-91,391 L-112,379 L-129,367 L-140,358 L-153,346 L-165,333 L-179,314 L-191,293 L-201,269 L-207,246 L-210,227 L-210,189 L-206,165 L-200,144 L-191,123 L-181,105 L-168,87 L-159,77 L-152,69 L-145,62 L-134,53 L-121,43 L-102,31 L-86,23 L-70,16 L-46,8 L-23,3 Z " fill="#9D909C" transform="translate(234,24)"/>
<path d="M0,0 L153,0 L169,4 L181,9 L195,18 L207,29 L217,43 L223,56 L227,69 L228,75 L228,117 L224,133 L219,145 L210,159 L199,171 L185,181 L172,187 L159,191 L143,193 L152,200 L162,209 L170,218 L181,236 L191,251 L198,261 L213,285 L225,304 L237,323 L244,334 L244,336 L171,336 L159,317 L144,293 L135,279 L131,271 L119,252 L111,239 L109,238 L103,227 L96,218 L91,214 L82,210 L60,208 L60,332 L56,336 L0,336 L-4,332 L-4,4 Z M60,64 L60,144 L124,144 L136,142 L148,136 L156,128 L162,116 L163,113 L163,95 L158,83 L149,73 L139,67 L133,65 L124,64 Z " fill="#4E9AB8" transform="translate(196,152)"/>
<path d="M0,0 L17,0 L32,24 L42,40 L42,42 L44,43 L16,48 L0,49 Z " fill="#9D909C" transform="translate(272,391)"/>
<path d="M0,0 L6,2 L16,7 L16,65 L9,64 L0,61 Z " fill="#68607C" transform="translate(176,367)"/>
<path d="M0,0 L16,0 L16,49 L0,49 Z " fill="#68607C" transform="translate(256,391)"/>
<path d="M0,0 L11,0 L25,22 L35,38 L35,40 L24,43 L18,43 L6,23 L-7,3 L-7,1 Z " fill="#69617D" transform="translate(296,390)"/>
<path d="M0,0 L4,1 L17,21 L22,29 L21,32 L10,39 L5,34 L-6,16 L-12,7 L-8,4 Z " fill="#69617D" transform="translate(378,365)"/>
</svg>
